<?xml version="1.0" encoding="UTF-8" standalone="no" ?>
<!DOCTYPE svg PUBLIC "-//W3C//DTD SVG 1.1//EN" "http://www.w3.org/Graphics/SVG/1.1/DTD/svg11.dtd">
<svg xmlns="http://www.w3.org/2000/svg" xmlns:xlink="http://www.w3.org/1999/xlink" version="1.1" width="1080" height="1080" viewBox="0 0 1080 1080" xml:space="preserve">
<desc>Created with Fabric.js 5.2.4</desc>
<defs>
</defs>
<rect x="0" y="0" width="100%" height="100%" fill="transparent"></rect>
<g transform="matrix(1 0 0 1 540 540)" id="32992f8b-62ff-4000-8aef-0480e2930675"  >
<rect style="stroke: none; stroke-width: 1; stroke-dasharray: none; stroke-linecap: butt; stroke-dashoffset: 0; stroke-linejoin: miter; stroke-miterlimit: 4; fill: rgb(255,255,255); fill-rule: nonzero; opacity: 1; visibility: hidden;" vector-effect="non-scaling-stroke"  x="-540" y="-540" rx="0" ry="0" width="1080" height="1080" />
</g>
<g transform="matrix(1 0 0 1 540 540)" id="be4010b8-b85d-4ede-8871-d11f01b3f5b6"  >
</g>
<g transform="matrix(34.29 0 0 34.29 540 677.69)"  >
<path style="stroke: rgb(0,0,0); stroke-width: 0; stroke-dasharray: none; stroke-linecap: butt; stroke-dashoffset: 0; stroke-linejoin: miter; stroke-miterlimit: 4; fill: rgb(35,36,64); fill-rule: nonzero; opacity: 1;" vector-effect="non-scaling-stroke"  transform=" translate(-12, -12)" d="M 11.262 2.306 C 11.458 2.11 11.723 2 12 2 C 12.277 2 12.542 2.11 12.738 2.306 C 14.655 4.223 19.777 9.344999999999999 21.694 11.262 C 21.89 11.458 22 11.723 22 12 C 22 12.277 21.89 12.542 21.694 12.738 C 19.776999999999997 14.655 14.655 19.777 12.738 21.694 C 12.542 21.89 12.277 22 12 22 C 11.723 22 11.458 21.89 11.262 21.694 C 9.345 19.776999999999997 4.223000000000001 14.655 2.306000000000001 12.738 C 2.1100000000000008 12.542 2.000000000000001 12.277 2.000000000000001 12 C 2.000000000000001 11.723 2.1100000000000008 11.458 2.306000000000001 11.262 C 4.223000000000001 9.345 9.345 4.223000000000001 11.262 2.306000000000001 z" stroke-linecap="round" />
</g>
<g transform="matrix(34.29 0 0 34.29 540 387.51)" id="b19098f0-76c4-44cc-a8bb-2ca61d4ebc4c"  >
<path style="stroke: rgb(22,23,52); stroke-opacity: 0.11; stroke-width: 3; stroke-dasharray: none; stroke-linecap: butt; stroke-dashoffset: 0; stroke-linejoin: miter; stroke-miterlimit: 4; fill: rgb(35,36,64); fill-rule: nonzero; opacity: 1;" vector-effect="non-scaling-stroke"  transform=" translate(-12, -12)" d="M 11.262 2.306 C 11.458 2.11 11.723 2 12 2 C 12.277 2 12.542 2.11 12.738 2.306 C 14.655 4.223 19.777 9.344999999999999 21.694 11.262 C 21.89 11.458 22 11.723 22 12 C 22 12.277 21.89 12.542 21.694 12.738 C 19.776999999999997 14.655 14.655 19.777 12.738 21.694 C 12.542 21.89 12.277 22 12 22 C 11.723 22 11.458 21.89 11.262 21.694 C 9.345 19.776999999999997 4.223000000000001 14.655 2.306000000000001 12.738 C 2.1100000000000008 12.542 2.000000000000001 12.277 2.000000000000001 12 C 2.000000000000001 11.723 2.1100000000000008 11.458 2.306000000000001 11.262 C 4.223000000000001 9.345 9.345 4.223000000000001 11.262 2.306000000000001 z" stroke-linecap="round" />
</g>
</svg>